<?xml version="1.0" encoding="iso-8859-1"?>
<!-- Generator: Adobe Illustrator 19.0.0, SVG Export Plug-In . SVG Version: 6.00 Build 0)  -->
<svg version="1.1" id="Capa_1" xmlns="http://www.w3.org/2000/svg" xmlns:xlink="http://www.w3.org/1999/xlink" x="0px" y="0px"
	 viewBox="0 0 511.999 511.999" style="enable-background:new 0 0 511.999 511.999;" xml:space="preserve">
<path style="fill:#C27C59;" d="M349.228,456.027L349.228,456.027c-14.367,0-26.014-11.647-26.014-26.014v-42.855
	c0-14.367,11.647-26.014,26.014-26.014l0,0c14.367,0,26.014,11.647,26.014,26.014v42.855
	C375.242,444.381,363.595,456.027,349.228,456.027z"/>
<path style="opacity:0.1;enable-background:new    ;" d="M349.228,456.027L349.228,456.027c-14.367,0-26.014-11.647-26.014-26.014
	v-42.855c0-14.367,11.647-26.014,26.014-26.014l0,0c14.367,0,26.014,11.647,26.014,26.014v42.855
	C375.242,444.381,363.595,456.027,349.228,456.027z"/>
<path style="fill:#C27C59;" d="M214.293,340.032l-31.042-44.477c-15.652-22.426-24.044-49.115-24.044-76.463v-59.533
	c0-43.749-34.801-80.216-78.547-80.783C36.212,78.199,0,114.057,0,158.373c0,39.222,28.366,71.819,65.703,78.394
	c8.074,1.422,13.901,8.538,13.901,16.737v21.695c0,35.807,29.027,64.834,64.834,64.834h69.855V340.032z"/>
<path style="opacity:0.1;enable-background:new    ;" d="M214.293,340.032l-31.042-44.477
	c-15.652-22.426-24.044-49.115-24.044-76.463v-59.533c0-43.749-34.801-80.216-78.547-80.783C36.212,78.199,0,114.057,0,158.373
	c0,39.222,28.366,71.819,65.703,78.394c8.074,1.422,13.901,8.538,13.901,16.737v21.695c0,35.807,29.027,64.834,64.834,64.834h69.855
	V340.032z"/>
<path style="fill:#FFDAB5;" d="M183.251,295.555c-15.652-22.426-24.044-49.115-24.044-76.463v-59.533
	c0-43.749-34.801-80.216-78.547-80.783c-21.705-0.282-41.431,8.14-55.95,21.977c7.145-1.993,14.685-3.037,22.489-2.936
	c43.745,0.567,78.547,37.034,78.547,80.783v59.533c0,27.348,8.393,54.037,24.044,76.463l17.753,25.436h46.751L183.251,295.555z"/>
<g>
	<path style="fill:#C27C59;" d="M275.376,252.965c-67.966,0-123.063,22.598-123.063,80.455c0,17.228,4.887,30.86,13.543,41.511
		c1.747,2.15,2.664,4.856,2.664,7.626v47.457c0,14.367,11.647,26.014,26.014,26.014l0,0c14.367,0,26.014-11.647,26.014-26.014
		v-20.191c0-3.18,2.873-5.563,6.005-5.01c5.384,0.951,10.968,1.705,16.718,2.282c2.994,0.3,5.278,2.817,5.278,5.827v17.093
		c0,14.367,11.647,26.014,26.014,26.014l0,0c14.367,0,26.014-11.647,26.014-26.014v-18.166c0-2.327,1.773-4.277,4.09-4.485
		c53.824-4.814,93.773-24.678,93.773-73.942C398.439,275.563,343.342,252.965,275.376,252.965z"/>
	<path style="fill:#C27C59;" d="M213.633,79.767c-2.062-0.32-3.623-2.003-3.788-4.083c-0.054-0.687-0.125-1.382-0.214-2.086
		c-1.291-10.254-5.765-18.134-9.993-17.602c-2.767,0.348-4.74,4.218-5.411,9.725c-0.223,1.83-2.332,2.729-3.855,1.689
		c-4.558-3.112-8.743-4.177-10.827-2.337c-2.084,1.84-1.546,6.127,0.979,11.036c0.854,1.66-0.341,3.615-2.208,3.613
		c-5.521-0.007-9.581,1.47-10.267,4.164c-1.052,4.129,6.213,9.545,16.228,12.097c0.687,0.175,1.369,0.332,2.043,0.471
		c2.037,0.419,3.52,2.166,3.582,4.245c0.812,27.467,13.695,56.94,37.897,68.602l49.191-43.43
		C268.42,100.415,240.782,83.981,213.633,79.767z"/>
</g>
<path style="fill:#FC9F65;" d="M256.899,132.98c-6.662-14.451-23.307-25.403-37.306-28.654c-3.303-0.767-6.41,1.975-6.058,5.348
	c1.491,14.294,10.296,32.168,23.81,40.569L256.899,132.98z"/>
<path style="fill:#C27C59;" d="M466.315,79.767c2.062-0.32,3.623-2.003,3.788-4.083c0.054-0.687,0.125-1.382,0.214-2.086
	c1.291-10.254,5.765-18.134,9.992-17.602c2.767,0.348,4.74,4.218,5.411,9.725c0.223,1.83,2.332,2.729,3.855,1.689
	c4.558-3.112,8.743-4.177,10.827-2.337c2.084,1.84,1.546,6.127-0.979,11.036c-0.854,1.66,0.341,3.615,2.208,3.613
	c5.521-0.007,9.581,1.47,10.267,4.164c1.052,4.129-6.213,9.545-16.228,12.097c-0.687,0.175-1.369,0.332-2.043,0.471
	c-2.037,0.419-3.52,2.166-3.582,4.245c-0.812,27.467-13.695,56.94-37.898,68.602l-49.191-43.43
	C411.529,100.415,439.167,83.981,466.315,79.767z"/>
<path style="fill:#FC9F65;" d="M423.05,132.98c6.662-14.451,23.307-25.403,37.306-28.654c3.303-0.767,6.409,1.975,6.058,5.348
	c-1.491,14.294-10.296,32.168-23.81,40.569L423.05,132.98z"/>
<path style="opacity:0.1;enable-background:new    ;" d="M275.376,252.965c-29.43,0-56.443,4.242-77.619,13.744
	c7.951,16.723,20.146,31.533,36.141,43.538c27.588,20.706,65.261,32.11,106.078,32.11c20.583,0,40.364-2.904,58.458-8.434
	c0.001-0.168,0.006-0.333,0.006-0.503C398.439,275.563,343.342,252.965,275.376,252.965z"/>
<path style="fill:#C27C59;" d="M473.012,217.947c0-64.263-59.563-116.359-133.038-116.359s-133.038,52.096-133.038,116.359
	s59.563,104.41,133.038,104.41S473.012,282.21,473.012,217.947z"/>
<path style="fill:#FFDAB5;" d="M472.983,215.9c-20.41,6.497-39.984-10.108-39.984-25.278c0-21.999-17.055-39.832-38.094-39.832
	s-38.094,17.833-38.094,39.832v33.19c0,9.298-7.537,16.835-16.835,16.835s-16.835-7.537-16.835-16.835v-33.19
	c0-21.999-17.055-39.832-38.094-39.832s-38.094,17.833-38.094,39.832c0,15.17-19.574,31.775-39.985,25.278
	c-0.013,0.682-0.029,1.363-0.029,2.047c0,64.263,59.563,104.41,133.038,104.41s133.038-40.147,133.038-104.41
	C473.012,217.262,472.996,216.581,472.983,215.9z"/>
<path style="fill:#414B58;" d="M354.228,220.304L354.228,220.304c-9.345-2.446-19.162-2.446-28.507,0l0,0
	c-3.87,1.013-7.242,3.394-9.491,6.702l0,0c-3.038,4.467-1.292,10.595,3.645,12.79l13.693,6.089c4.079,1.814,8.734,1.814,12.813,0
	l13.693-6.089c4.936-2.195,6.682-8.323,3.645-12.79l0,0C361.47,223.698,358.098,221.317,354.228,220.304z"/>
<g>
	<ellipse style="fill:#FFA6BB;" cx="263.19" cy="232.859" rx="27.365" ry="21.792"/>
	<ellipse style="fill:#FFA6BB;" cx="416.76" cy="232.859" rx="27.365" ry="21.792"/>
</g>
<g>
	<path style="fill:#414B58;" d="M279.139,218.619c-4.143,0-7.5-3.358-7.5-7.5v-9.663c0-4.142,3.357-7.5,7.5-7.5s7.5,3.358,7.5,7.5
		v9.663C286.639,215.261,283.281,218.619,279.139,218.619z"/>
	<path style="fill:#414B58;" d="M400.81,218.619c-4.142,0-7.5-3.358-7.5-7.5v-9.663c0-4.142,3.358-7.5,7.5-7.5
		c4.143,0,7.5,3.358,7.5,7.5v9.663C408.31,215.261,404.953,218.619,400.81,218.619z"/>
	<path style="fill:#414B58;" d="M339.975,283.083c-8.265,0-16.125-3.58-21.564-9.821c-2.722-3.122-2.397-7.86,0.726-10.582
		c3.122-2.722,7.86-2.396,10.581,0.726c2.591,2.972,6.329,4.677,10.258,4.677s7.666-1.704,10.256-4.676
		c2.72-3.124,7.457-3.449,10.582-0.727c3.122,2.721,3.448,7.459,0.727,10.582C356.101,279.504,348.24,283.083,339.975,283.083z"/>
</g>
<path style="opacity:0.05;enable-background:new    ;" d="M300.854,106.704c-54.382,14.612-93.918,58.888-93.918,111.243
	c0,64.263,59.563,104.41,133.038,104.41c23.322,0,45.237-4.05,64.296-11.627C189.011,306.458,258.745,140.036,300.854,106.704z"/>
<path style="opacity:0.05;enable-background:new    ;" d="M188.875,425.118c2.085-24.891,2.373-49.674-10.228-62.607
	c-10.65-10.931-20.508-44.538-12.662-71.894c-8.735,11.338-13.672,25.49-13.672,42.802c0,17.228,4.887,30.86,13.543,41.511
	c1.747,2.15,2.664,4.856,2.664,7.626v47.457c0,14.367,11.647,26.014,26.014,26.014l0,0c5.508,0,10.613-1.717,14.819-4.638
	C199.497,451.129,187.638,439.884,188.875,425.118z"/>
<g>
</g>
<g>
</g>
<g>
</g>
<g>
</g>
<g>
</g>
<g>
</g>
<g>
</g>
<g>
</g>
<g>
</g>
<g>
</g>
<g>
</g>
<g>
</g>
<g>
</g>
<g>
</g>
<g>
</g>
</svg>
