<?xml version="1.0" encoding="iso-8859-1"?>
<!-- Generator: Adobe Illustrator 19.0.0, SVG Export Plug-In . SVG Version: 6.00 Build 0)  -->
<svg version="1.1" id="Capa_1" xmlns="http://www.w3.org/2000/svg" xmlns:xlink="http://www.w3.org/1999/xlink" x="0px" y="0px"
	 viewBox="0 0 512 512" style="enable-background:new 0 0 512 512;" xml:space="preserve">
<g>
	<g>
		<polygon style="fill:#A5A5A4;" points="8.828,203.758 8.828,373.142 44.138,373.142 44.138,212.657 		"/>
		<rect x="105.931" y="256.794" style="fill:#A5A5A4;" width="35.31" height="151.658"/>
	</g>
	<path style="fill:#5E5F62;" d="M105.931,398.036h35.31c4.875,0,8.828,3.952,8.828,8.828v35.31H97.103v-35.31
		C97.103,401.988,101.056,398.036,105.931,398.036z"/>
	<g>
		<polygon style="fill:#A5A5A4;" points="406.069,300.932 406.069,380.381 370.759,380.381 370.759,309.76 		"/>
		<rect x="467.862" y="212.657" style="fill:#A5A5A4;" width="35.31" height="203.034"/>
	</g>
	<ellipse style="fill:#3B97D3;" cx="256" cy="203.829" rx="247.172" ry="141.241"/>
	<g>
		<ellipse style="fill:#5E5F62;" cx="256" cy="203.829" rx="211.862" ry="105.931"/>
		<path style="fill:#5E5F62;" d="M414.897,406.863h-52.966v-35.31c0-4.875,3.952-8.828,8.828-8.828h35.31
			c4.875,0,8.828,3.952,8.828,8.828V406.863z"/>
		<path style="fill:#5E5F62;" d="M512,449.412h-52.966v-35.31c0-4.875,3.952-8.828,8.828-8.828h35.31
			c4.875,0,8.828,3.952,8.828,8.828V449.412z"/>
	</g>
	<path style="fill:#A5A5A4;" d="M326.621,150.863h-22.828l7-7c2.253-2.225,3.142-5.487,2.328-8.547
		c-0.813-3.06-3.204-5.451-6.264-6.264c-3.061-0.813-6.322,0.076-8.547,2.329l-19.483,19.482h-28l7-7
		c3.41-3.453,3.392-9.012-0.039-12.443c-3.432-3.432-8.99-3.449-12.443-0.039l-19.483,19.482h-28l7-7
		c3.41-3.453,3.392-9.012-0.039-12.443c-3.432-3.432-8.99-3.449-12.443-0.039l-19.483,19.482h-31.655
		c-4.875,0-8.828,3.952-8.828,8.828s3.952,8.828,8.828,8.828h14l-17.655,17.655h-22.828c-4.875,0-8.828,3.952-8.828,8.828
		c0,4.875,3.952,8.828,8.828,8.828h5.172l-20.242,20.242c-2.253,2.225-3.142,5.487-2.328,8.547c0.813,3.06,3.204,5.451,6.264,6.264
		c3.061,0.813,6.322-0.076,8.547-2.329l32.724-32.724h28l-20.242,20.242c-2.253,2.225-3.142,5.487-2.328,8.547
		c0.813,3.06,3.204,5.451,6.264,6.264c3.061,0.813,6.322-0.076,8.547-2.329l32.724-32.724h28l-20.242,20.242
		c-2.253,2.225-3.142,5.487-2.328,8.547c0.813,3.06,3.204,5.451,6.264,6.264c3.061,0.813,6.322-0.076,8.547-2.329l32.724-32.724
		h49.31c4.875,0,8.828-3.952,8.828-8.828c0-4.875-3.952-8.828-8.828-8.828h-31.655l17.655-17.655h40.483
		c4.875,0,8.828-3.952,8.828-8.828S331.496,150.863,326.621,150.863z M162.552,186.174l17.655-17.655h28l-17.655,17.655H162.552z
		 M243.517,186.174h-28l17.655-17.655h28L243.517,186.174z"/>
	<path style="fill:#5E5F62;" d="M8.828,362.726h35.31c4.875,0,8.828,3.952,8.828,8.828v35.31H0v-35.31
		C0,366.678,3.952,362.726,8.828,362.726z"/>
</g>
<g>
</g>
<g>
</g>
<g>
</g>
<g>
</g>
<g>
</g>
<g>
</g>
<g>
</g>
<g>
</g>
<g>
</g>
<g>
</g>
<g>
</g>
<g>
</g>
<g>
</g>
<g>
</g>
<g>
</g>
</svg>
