<?xml version="1.0" encoding="utf-8"?>
<!-- Generator: Adobe Illustrator 21.1.0, SVG Export Plug-In . SVG Version: 6.00 Build 0)  -->
<svg version="1.1" id="Layer_1" xmlns="http://www.w3.org/2000/svg" xmlns:xlink="http://www.w3.org/1999/xlink" x="0px" y="0px"
	 viewBox="0 0 1000 1000" style="enable-background:new 0 0 1000 1000;" xml:space="preserve">
<style type="text/css">
	.st0{fill:#606161;}
	.st1{clip-path:url(#SVGID_2_);}
	.st2{fill:#E8F5F6;}
	.st3{fill:#BFE5EA;}
	.st4{fill:#F7E9B4;}
	.st5{fill:#B1E0E7;}
	.st6{opacity:0.1;fill:#010101;enable-background:new    ;}
	.st7{opacity:5.000000e-02;fill:#010101;enable-background:new    ;}
	.st8{fill:#EDBCB8;}
	.st9{fill:#4A5159;}
	.st10{font-family:'Avenir-Heavy';}
	.st11{font-size:102.4828px;}
</style>
<circle class="st0" cx="500" cy="500" r="500"/>
<g>
	<defs>
		<circle id="SVGID_1_" cx="500" cy="500" r="456.2"/>
	</defs>
	<clipPath id="SVGID_2_">
		<use xlink:href="#SVGID_1_"  style="overflow:visible;"/>
	</clipPath>
	<g class="st1">
		<rect x="-359.3" y="-197.4" class="st2" width="1508.9" height="1455.1"/>
		<g>
			<path class="st3" d="M87.8,801.6H61.2c0-29.7,28.6-88,94.7-88v26.7C107.4,740.3,87.8,783.6,87.8,801.6z"/>
			<path class="st4" d="M94.5,810.3c0-12.2-9.8-22.1-21.8-22.1s-21.8,9.9-21.8,22.1c0,12.2,9.8,36.2,21.8,36.2
				S94.5,822.5,94.5,810.3z"/>
			<path class="st5" d="M546.8,1032.8h-93.5c-11.3,0-20.4-9.1-20.4-20.4v-233h134.3v233C567.2,1023.7,558,1032.8,546.8,1032.8z"/>
			<path class="st4" d="M567.2,956.2L567.2,956.2v56.2c0,11.3-9.1,20.4-20.4,20.4H500v-9.5C500,986.3,530.1,956.2,567.2,956.2z"/>
			<path class="st6" d="M546.8,1032.8h-93.5c-11.3,0-20.4-9.1-20.4-20.4v-233h134.3v233C567.2,1023.7,558,1032.8,546.8,1032.8z"/>
			<path class="st5" d="M355.8,615.3c-122.9,0-222.5,73.5-222.5,164.2v233c0,11.3,9.1,20.4,20.4,20.4h93.5
				c11.3,0,20.4-9.1,20.4-20.4v-89.9c20.8,3.3,44.7,5.3,72,5.8v84.1c0,11.3,9.1,20.4,20.4,20.4h93.5c11.3,0,20.4-9.1,20.4-20.4
				v-96.2c82.4-21.6,104.2-70.6,104.2-136.8C578.3,688.8,478.7,615.3,355.8,615.3z"/>
			<path class="st4" d="M267.7,956.2L267.7,956.2v56.2c0,11.3-9.1,20.4-20.4,20.4h-46.8v-9.5C200.5,986.3,230.6,956.2,267.7,956.2z"
				/>
			<path class="st7" d="M355.8,615.3c-38.9,0-75.4,7.4-107.2,20.3c23.4,98.3,121.1,172,238,172c32.3,0,63.2-5.6,91.4-15.9
				c0.2-4,0.3-8.1,0.3-12.3C578.3,688.8,478.7,615.3,355.8,615.3z"/>
			<path class="st4" d="M474.1,956.2L474.1,956.2v56.2c0,11.3-9.1,20.4-20.4,20.4h-46.8v-9.5C406.9,986.3,437,956.2,474.1,956.2z"/>
			<path class="st3" d="M888.1,471.4c0-67.5-54.8-122.3-122.3-122.3s-122.3,54.8-122.3,122.3V683c0,39.2,31.8,70.9,70.9,70.9
				s70.9-31.8,70.9-70.9c0-69.6,32.9-91.5,62.9-121.3c4.6-4.2,8.9-8.8,12.8-13.7c0.1-0.1,0.2-0.2,0.3-0.4
				C888.1,511.2,888.1,471.4,888.1,471.4z"/>
			<path class="st8" d="M800.5,505.1c0-43.4-35.2-78.5-78.5-78.5c-43.4,0-78.5,35.2-78.5,78.5v135.8c0,25.1,20.4,45.5,45.5,45.5
				s45.5-20.4,45.5-45.5c0-44.7,21.2-58.8,40.4-77.9c3-2.7,5.7-5.7,8.2-8.8c0.1-0.1,0.1-0.2,0.2-0.2
				C804.3,529.4,800.5,505.1,800.5,505.1z"/>
			<ellipse class="st5" cx="517.2" cy="559.4" rx="243.4" ry="217.6"/>
			<path class="st7" d="M641.7,608.5l-75-10.9c-14.7,74.7,2.7,130.3,27.7,168.2c30.1-9,57.6-23.1,81.1-41.2
				C653.8,699.9,641.7,659.3,641.7,608.5z"/>
			<path class="st3" d="M82.5,471.4c0-67.5,54.8-122.3,122.3-122.3s122.3,54.8,122.3,122.3V683c0,39.2-31.8,70.9-70.9,70.9
				s-70.9-31.8-70.9-70.9c0-69.6-32.9-91.5-62.9-121.3c-4.6-4.2-8.9-8.8-12.8-13.7c-0.1-0.1-0.2-0.2-0.3-0.4
				C82.5,511.2,82.5,471.4,82.5,471.4z"/>
			<path class="st8" d="M170.1,505.1c0-43.4,35.2-78.5,78.5-78.5s78.5,35.2,78.5,78.5v135.8c0,25.1-20.4,45.5-45.5,45.5
				c-25.2,0-45.5-20.4-45.5-45.5c0-44.7-21.2-58.8-40.4-77.9c-3-2.7-5.7-5.7-8.2-8.8c-0.1-0.1-0.1-0.2-0.2-0.2
				C166.3,529.4,170.1,505.1,170.1,505.1z"/>
			<path class="st5" d="M744.5,821.5c-27.5,0-54.7-6.6-79.3-19.9C629,781.9,570,731.9,562.3,613.2c-0.9-14.2,10.4-26.1,24.6-26.1
				h42.4c12.8,0,23.5,9.8,24.5,22.6c4.2,54.4,23.7,94.4,55.1,111.4c19.7,10.7,43.6,11.6,65.7,3.3c10.8-4.1,23.1-0.4,29.4,9.3
				l23.7,36.5c8.1,12.5,3.1,29.3-10.5,35.5C793.9,816.2,769.1,821.5,744.5,821.5z"/>
			<path class="st6" d="M654.3,615l-37.4,11.1c-7.1,2.1-11.1,9.5-9,16.6c1.7,5.8,7,9.5,12.8,9.5c1.3,0,2.5-0.2,3.8-0.6l33.8-10.1
				C656.5,633.3,655.2,624.4,654.3,615z M641.8,709.1c-5.9,4.5-7,12.8-2.5,18.7c2.6,3.4,6.6,5.3,10.6,5.3c2.8,0,5.7-0.9,8.1-2.7
				l31.6-24c-5.9-6.1-11.1-13.4-15.7-21.6L641.8,709.1z M732.1,729.1l-4.1,30.2c-1,7.3,4.1,14,11.4,15c0.6,0.1,1.2,0.1,1.8,0.1
				c6.6,0,12.3-4.9,13.2-11.5l4.6-34.1C750,730.4,740.9,730.5,732.1,729.1z"/>
			<g>
				<path class="st9" d="M514.4,564.1c-7.4,0-13.3-6-13.3-13.3v-21.3c0-7.4,6-13.3,13.3-13.3c7.4,0,13.3,6,13.3,13.3v21.3
					C527.7,558.1,521.8,564.1,514.4,564.1z"/>
				<path class="st9" d="M686.9,564.1c-7.4,0-13.3-6-13.3-13.3v-21.3c0-7.4,6-13.3,13.3-13.3c7.4,0,13.3,6,13.3,13.3v21.3
					C700.2,558.1,694.2,564.1,686.9,564.1z"/>
			</g>
		</g>
	</g>
</g>
<text transform="matrix(1 0 0 1 258.1538 257.2134)" class="st0 st10 st11">elephluent</text>
</svg>
